<svg version="1.1" id="Layer_1" xmlns="http://www.w3.org/2000/svg" xmlns:xlink="http://www.w3.org/1999/xlink" x="0px"
	y="0px" width="100%" viewBox="0 0 880 688" enable-background="new 0 0 880 688" xml:space="preserve">
	<title>Powered by NeuroCare.AI</title>
	<path fill="#000000" opacity="1.000000" stroke="none" d="
M881.000000,504.000000
	C881.000000,565.658325 881.000000,627.316650 881.000000,688.981201
	C587.714661,688.987488 294.429321,688.987488 1.071985,688.987488
	C1.071985,459.745667 1.071985,230.491333 1.071985,1.118488
	C294.214630,1.118488 587.429321,1.118488 881.000000,1.118488
	C881.000000,157.360016 881.000000,313.720306 880.701477,470.689484
	C876.349915,475.715454 872.606689,480.294891 871.871277,486.577301
	C871.559692,489.239197 870.040649,490.895294 867.708069,492.316620
	C864.051880,494.544556 864.456421,497.138672 868.231812,499.270172
	C872.253418,501.540619 876.377319,503.410583 881.000000,504.000000
M819.816101,490.237244
	C835.349670,478.004547 845.943298,462.510773 850.437561,443.150482
	C851.075134,440.403870 852.224609,438.176697 853.905457,436.154205
	C859.029724,429.988281 863.235107,423.206207 866.881409,416.129150
	C875.544922,399.314301 877.954163,381.271210 877.757568,362.509705
	C877.550842,342.771820 873.233704,324.730499 860.337524,309.268372
	C858.971924,307.630981 857.632263,305.893005 858.166504,303.029480
	C861.047607,287.587494 860.958679,272.050415 858.679688,256.528198
	C855.425842,234.366119 846.757629,214.714478 830.595398,198.958313
	C824.683594,193.194992 821.318542,186.966324 819.329346,178.812057
	C809.841125,139.917511 788.279114,111.609848 747.787048,100.969154
	C745.267517,100.307037 743.522095,98.557739 741.633789,96.898750
	C733.131775,89.429077 726.575806,80.136612 717.849121,72.770508
	C697.179504,55.323418 672.819641,48.299126 646.669617,46.699234
	C639.368103,46.252514 633.918579,44.227962 628.391296,39.829376
	C606.947815,22.764530 582.450928,16.766243 555.506897,21.317093
	C549.359558,22.355381 543.870483,22.855085 537.804626,20.118660
	C527.284180,15.372644 515.888611,13.748515 504.340179,13.377518
	C492.087189,12.983884 480.140778,14.589890 468.518372,18.502111
	C466.749390,19.097559 465.130341,19.294607 463.200562,18.773333
	C446.079468,14.148585 428.797607,12.456752 410.986877,14.210114
	C390.737732,16.203522 371.332001,20.524693 353.253021,30.055294
	C351.399506,31.032398 349.658844,31.108391 347.536163,30.660501
	C337.454285,28.533213 327.209839,27.294008 316.920258,27.495178
	C308.489624,27.660006 300.079773,28.774546 291.655396,29.396206
	C273.788300,30.714674 256.607971,34.811657 240.376846,42.436211
	C224.468735,49.909027 210.343323,60.030499 197.280334,71.775101
	C181.868683,85.631332 163.998566,95.891228 146.082047,106.075470
	C118.737381,121.618935 96.874550,143.019394 79.006805,168.797012
	C72.139557,178.704330 66.883720,189.443542 61.328388,200.025024
	C52.609913,216.631500 42.688747,232.881042 39.820915,251.829178
	C38.049271,263.534637 34.995171,274.460693 27.576891,283.900970
	C26.257236,285.580292 25.287853,287.560089 24.310917,289.479614
	C14.348354,309.054535 11.618488,329.762329 14.269079,351.433960
	C16.708340,371.377716 22.546328,390.043213 34.085289,406.648346
	C36.508224,410.135071 36.935909,413.877533 36.181274,417.595978
	C34.286125,426.934479 35.095173,436.291931 36.707767,445.362244
	C42.431984,477.559174 60.020535,500.879578 90.351227,513.984070
	C93.140678,515.189270 94.967834,516.849365 96.333099,519.530029
	C104.879654,536.311035 118.629967,547.348511 135.689087,554.567810
	C152.903809,561.852966 170.875885,566.229492 189.374664,568.871643
	C202.947998,570.810181 216.454819,571.377625 230.054276,569.729553
	C233.183899,569.350342 235.309784,569.986694 236.529312,573.469788
	C240.961273,586.127991 247.330902,597.717468 256.696198,607.473694
	C278.493469,630.180847 306.376526,638.650208 336.626556,640.451538
	C356.191559,641.616577 375.813843,640.712158 395.173950,636.817200
	C398.020477,636.244568 400.863373,636.145874 402.943237,639.546875
	C411.669983,653.816833 424.023102,664.333923 438.828918,671.751099
	C463.176544,683.948303 488.915955,686.591309 515.447021,681.120667
	C537.429626,676.587891 557.061584,667.497192 572.038879,650.066528
	C572.860657,649.110046 573.867493,648.656372 575.132019,648.828613
	C585.574463,650.251160 595.972839,649.319946 606.439148,648.777100
	C625.619812,647.782349 644.278381,644.512634 662.511475,638.563477
	C694.064026,628.268372 720.206055,610.270081 740.146667,583.649536
	C750.763428,569.476135 759.015869,553.968994 764.664246,537.124023
	C765.544739,534.498108 766.069275,531.739014 768.460205,529.728943
	C774.831543,524.372375 780.851318,518.620667 785.905762,511.972809
	C787.780212,509.507507 790.085205,507.838806 792.831543,506.529755
	C802.142273,502.091675 811.311707,497.398132 819.816101,490.237244
z" />
	<path fill="#000000" opacity="1.000000" stroke="none" d="
M177.663910,538.556396
	C166.652283,536.187744 156.380173,532.952148 146.325363,528.844666
	C132.731796,523.291504 123.124321,514.036865 118.303017,500.122040
	C116.504807,494.932159 113.268974,492.165680 107.933739,490.545624
	C80.161758,482.112671 63.635376,459.481537 63.628666,430.477905
	C63.627434,425.145691 63.377014,419.785217 63.826839,414.487488
	C64.603104,405.345245 61.418015,397.685760 56.633812,390.130493
	C42.266323,367.441284 37.809246,342.856354 43.590542,316.518860
	C45.334637,308.573364 48.838718,301.367859 53.486343,294.838074
	C60.297722,285.268219 64.655914,274.970917 65.985802,263.200684
	C67.462196,250.133881 72.420403,238.119186 78.638672,226.609238
	C88.126282,209.047729 96.294510,190.757645 108.851326,174.940933
	C125.259651,154.272842 144.859879,137.488647 168.222397,125.282448
	C186.973572,115.485535 203.702927,102.943108 219.620987,89.170288
	C236.645599,74.440025 255.533600,63.120094 278.041016,59.293198
	C298.914948,55.744045 319.919128,53.545937 341.042542,57.589401
	C341.532959,57.683273 342.109497,57.614231 342.509460,57.851326
	C351.084137,62.934322 357.925842,59.785217 365.879852,54.983078
	C381.084534,45.803421 398.428558,42.578320 416.062378,41.704117
	C432.984772,40.865181 449.700226,42.027512 465.478790,49.077671
	C467.670807,50.057098 469.313141,49.106663 471.038422,48.009682
	C487.250031,37.701859 525.976440,38.789642 539.938416,53.452435
	C542.162476,55.788166 544.005249,54.516289 546.133179,53.436699
	C567.815552,42.436440 598.583801,47.603531 614.988220,64.972794
	C616.014832,66.059746 617.361572,67.109360 617.812500,68.431137
	C620.350769,75.871704 625.675659,74.982292 632.051270,74.615227
	C660.765198,72.962074 686.945496,79.221588 707.438232,101.241165
	C712.885010,107.093712 718.431885,112.854118 723.983459,118.607925
	C728.001831,122.772652 732.788208,125.949577 738.409668,127.198730
	C769.439331,134.093796 784.856140,155.538849 792.261475,184.532318
	C793.824341,190.651321 795.031982,196.856003 795.372070,203.181549
	C795.511475,205.774414 796.695251,207.394623 798.895142,208.756012
	C818.614502,220.959335 828.278931,239.463470 831.308960,261.789612
	C833.405762,277.239349 833.119568,292.663910 828.580078,307.786163
	C827.860046,310.184723 828.680298,312.438934 829.972900,314.441101
	C831.687561,317.097015 833.296875,319.893677 835.416382,322.203247
	C846.445496,334.221466 850.005981,348.713989 850.139038,364.529541
	C850.302368,383.952850 845.732056,401.789856 833.293213,417.132019
	C831.619202,419.196747 829.793884,421.141022 827.999329,423.105164
	C826.059021,425.228882 824.477417,427.461578 824.180237,430.488464
	C822.362976,448.999512 812.784790,463.280029 797.093262,471.919952
	C780.030884,481.314636 765.096069,492.522552 751.764465,506.739105
	C745.958740,512.930176 741.274719,518.515625 738.490479,526.750183
	C720.724121,579.295044 682.948975,608.480164 629.228394,618.271423
	C608.630127,622.025818 587.839172,622.415222 567.032104,620.379883
	C561.463074,619.835083 557.954712,621.106323 554.946106,626.407959
	C549.634888,635.767273 541.196594,642.248352 531.421875,646.610596
	C502.419098,659.553894 473.661682,659.873657 445.753143,643.576416
	C432.400085,635.778748 423.667236,623.869568 419.233490,609.136658
	C417.785065,604.323792 415.879822,603.872803 411.453552,604.993469
	C390.409332,610.321899 369.004211,613.484558 347.266693,613.142151
	C328.659119,612.848999 310.411407,610.235535 293.732330,601.073486
	C273.492310,589.955444 262.858551,572.412292 259.662231,549.938416
	C259.241180,546.977905 258.878845,543.998230 258.710327,541.014954
	C258.394318,535.419128 257.983063,535.033020 252.393036,536.669922
	C243.275574,539.339722 234.003006,541.105469 224.594696,542.482056
	C210.791718,544.501587 197.403854,541.973755 183.939743,539.823853
	C181.973038,539.509827 180.029541,539.050537 177.663910,538.556396
M117.505325,185.977371
	C103.709030,205.153732 93.604561,226.369858 83.891357,247.744705
	C79.411087,257.603973 78.811935,268.499542 77.226280,279.202362
	C82.513336,280.322021 86.779205,278.481171 91.090149,277.559509
	C133.415573,268.510437 159.173447,238.899170 161.627686,196.541946
	C161.879120,192.202591 163.849869,189.603500 168.163788,189.158966
	C171.849731,188.779114 174.727966,191.688232 175.235153,196.065811
	C175.623703,199.419617 174.834122,202.694366 174.407547,205.993698
	C170.505203,236.175934 156.314590,259.927063 130.365738,276.264221
	C113.069435,287.153809 93.774376,291.898285 73.754280,294.237885
	C71.470848,294.504700 69.655647,295.030060 68.201706,296.968689
	C59.443401,308.646698 54.262363,321.695038 54.479809,336.331879
	C54.728428,353.066711 58.431171,369.056519 68.084137,383.104370
	C74.733940,392.781738 78.204269,403.175903 77.441742,415.023132
	C77.025108,421.496185 76.944038,428.035492 77.334610,434.507294
	C78.412834,452.373962 86.960106,465.685455 102.684647,474.274017
	C104.304832,475.158936 106.095360,476.571106 108.394859,475.129395
	C108.342781,474.514404 108.354805,473.863037 108.225365,473.241119
	C100.696945,437.069611 99.073196,400.691132 104.730598,364.117981
	C107.413971,346.770935 112.174019,330.013947 120.219696,314.290741
	C127.289803,300.474060 137.549454,290.217682 151.729370,283.456940
	C167.946625,275.724823 184.378220,268.220886 198.535049,256.807404
	C213.465714,244.770020 222.403824,229.468155 224.918991,210.259201
	C225.987228,202.100906 224.944946,193.948883 226.051895,185.841843
	C228.642548,166.869003 237.317291,150.821869 249.660309,136.558945
	C269.063507,114.137680 293.209473,98.009315 319.255219,84.446617
	C322.205475,82.910332 325.211121,81.421318 328.324951,80.273582
	C332.013885,78.913887 334.970123,80.332802 336.600189,83.801247
	C338.257996,87.328835 337.118042,90.307785 333.892548,92.413200
	C332.785828,93.135643 331.516235,93.607971 330.323151,94.198860
	C306.134216,106.178757 283.553558,120.476723 264.787018,140.161774
	C248.609085,157.131546 237.747345,176.288345 239.185379,200.858826
	C239.650146,208.800171 237.980469,216.749817 235.909653,224.503860
	C235.421097,226.333328 234.204056,228.195023 235.809128,230.470367
	C243.092896,229.698761 250.359573,228.057770 257.784912,227.414276
	C289.476440,224.667786 316.754883,233.108154 337.820435,257.951324
	C339.701813,260.170105 341.525055,260.682739 344.343781,259.858490
	C350.578186,258.035522 357.023987,256.945435 363.502502,256.757629
	C415.810883,255.240936 439.532898,302.219727 436.416016,340.264282
	C436.074005,344.438568 433.745636,346.689636 429.508606,346.429840
	C425.125031,346.161102 423.520264,343.287964 423.625946,339.268860
	C423.757721,334.257599 423.426422,329.293365 422.674805,324.338409
	C419.688904,304.653961 411.543915,288.040771 393.912170,277.473175
	C379.830444,269.033295 364.767609,268.678711 348.983093,272.804169
	C349.293945,274.168213 349.313385,275.032257 349.673157,275.717682
	C357.488525,290.607300 362.215027,306.501892 364.823486,323.034729
	C365.909607,329.918640 366.619476,336.880463 367.103180,343.834473
	C367.431305,348.551422 364.203094,352.142273 360.333313,352.197113
	C356.571655,352.250427 353.949585,349.128571 353.625916,344.387054
	C353.399719,341.072571 353.020508,337.768402 352.702515,334.460297
	C350.850586,315.193115 346.002899,296.756165 336.482513,279.826416
	C325.891937,260.993683 310.620209,247.807632 289.163818,242.710892
	C268.049133,237.695358 247.525558,241.201797 227.179382,247.149414
	C225.206421,247.726151 224.318069,249.314194 223.208069,250.748688
	C217.256744,258.439514 210.384613,265.159363 202.482559,270.863464
	C188.075668,281.263153 172.047241,288.733459 156.197723,296.492126
	C147.215469,300.889160 140.211288,307.160156 135.053101,315.657196
	C131.928436,320.804413 129.332718,326.199554 127.185143,331.806946
	C118.811005,353.672272 115.180359,376.454163 115.165329,399.735260
	C115.144058,432.681213 115.557060,465.556152 130.955505,496.146149
	C135.300537,504.777863 140.598877,511.416077 149.392380,515.458862
	C164.999329,522.634094 181.536179,526.192139 198.396118,528.548340
	C200.956543,528.906128 203.760025,529.472290 206.181610,527.780151
	C218.745392,519.000549 230.678787,503.573578 223.733047,484.044586
	C221.790726,478.583435 223.083145,475.014648 227.070694,473.616455
	C231.106522,472.201355 234.373932,474.238617 236.322510,479.535400
	C242.006287,494.985352 239.404312,509.290283 230.306488,522.700012
	C229.228943,524.288330 227.494705,525.543823 227.372299,528.076416
	C231.824509,528.135010 235.943329,526.981201 240.069962,525.999695
	C263.691193,520.381287 285.676636,510.351746 307.904572,500.939789
	C317.497589,496.877838 326.698425,491.408966 337.609283,491.334106
	C339.057861,491.324158 340.054413,490.331055 341.066589,489.486328
	C359.172516,474.374481 379.129456,461.986938 399.265717,449.856995
	C400.887726,448.879944 403.088531,448.419189 403.587524,445.665833
	C393.884064,437.857300 383.086151,431.685181 371.559875,426.834320
	C344.933624,415.628540 318.404022,414.379303 291.961304,427.742401
	C280.506622,433.531128 268.531830,438.174927 256.255463,441.947662
	C229.604980,450.137756 202.604706,455.220734 174.616333,450.303131
	C157.293198,447.259521 141.832642,440.451477 129.558304,427.424927
	C128.531235,426.334961 127.504784,425.228333 126.615562,424.027618
	C123.873245,420.324707 123.932220,415.908813 127.008163,413.775146
	C130.605942,411.279449 133.990280,412.154968 136.744827,415.365692
	C144.905365,424.877869 155.083145,431.248840 167.055710,434.723969
	C185.870087,440.184937 204.873428,439.508179 223.924316,436.153839
	C247.564728,431.991364 269.745514,423.579681 291.291626,413.218933
	C306.999512,405.665558 323.761658,403.210846 340.942657,404.986969
	C367.331299,407.714966 390.596558,418.554504 411.417480,434.565735
	C416.331116,438.344299 419.741852,438.480225 425.055817,435.625793
	C466.392975,413.421234 509.117188,394.541473 554.899780,383.362335
	C559.195618,382.313354 559.637268,380.505768 558.181580,376.668274
	C553.372070,363.988831 550.517578,350.931854 550.443481,337.236084
	C550.338196,317.776398 555.197937,300.034485 567.289856,284.576843
	C570.654602,280.275482 574.942078,279.386688 578.073303,281.908752
	C581.196472,284.424408 581.207031,288.940338 577.842773,292.999786
	C573.199036,298.603210 569.957886,304.960052 567.677429,311.784790
	C560.377258,333.632538 563.767517,354.764862 572.155273,375.547058
	C573.465454,378.793457 575.880371,379.033508 578.684387,378.412170
	C591.563782,375.558289 604.207092,371.888306 615.953735,365.789795
	C643.068909,351.712372 661.608704,331.097168 665.749390,299.635468
	C666.277832,295.619568 668.980713,293.454681 673.122375,293.801941
	C676.945312,294.122528 679.391296,297.855560 678.878601,302.325928
	C677.031494,318.430328 671.032410,332.902924 661.272278,345.763550
	C643.410278,369.300110 618.818420,382.161530 590.831116,389.258148
	C577.946594,392.525177 564.768005,394.644653 551.910522,398.003143
	C510.587799,408.796936 471.797607,425.968170 434.219116,445.959534
	C404.484680,461.777893 375.434021,478.722656 349.275665,500.193512
	C343.079834,505.279083 339.070801,511.582367 337.316986,519.287659
	C333.118042,537.735535 339.421112,553.228027 351.862732,566.354980
	C374.655426,590.403076 407.824921,596.866760 439.159912,584.110168
	C453.115509,578.428833 465.059387,569.795837 476.037415,559.676392
	C478.831451,557.100830 481.704224,555.606506 485.447876,557.762085
	C497.387085,564.636719 510.618713,566.537720 523.986694,566.491089
	C549.381409,566.402405 573.284729,559.736572 594.338806,545.579041
	C609.059143,535.680603 625.107422,532.547974 642.039429,531.723999
	C657.322083,530.980225 671.686768,528.112244 683.986145,518.141235
	C691.779114,511.823639 700.942261,508.886078 711.007324,509.708923
	C721.087646,510.532959 729.546997,506.738739 737.600220,501.331024
	C745.035217,496.338562 751.116516,489.984985 756.314514,482.773682
	C759.926086,477.763397 764.543762,474.239716 770.155151,471.668762
	C779.705322,467.293182 789.112793,462.583313 797.030396,455.477051
	C804.465027,448.804230 809.593750,440.749847 810.549988,430.632721
	C811.089172,424.926788 812.700256,419.853882 816.772705,415.788452
	C831.894592,400.692322 837.814392,382.308197 836.651001,361.257996
	C836.097656,351.248016 834.278564,341.833954 827.366760,333.946899
	C824.308655,330.457214 821.821350,326.452881 819.204041,322.594574
	C814.844421,316.167755 813.815125,309.510010 816.085510,301.748138
	C820.318420,287.276489 820.264465,272.266235 816.887756,257.771667
	C812.759888,240.053009 804.457214,225.187012 785.791016,217.886246
	C776.409485,214.216965 767.657288,208.792648 757.859375,205.923050
	C728.624878,197.360962 701.945251,200.296478 680.770142,224.448502
	C675.806274,230.110199 671.570007,230.659302 664.771545,228.462738
	C629.486755,217.062347 595.573730,219.002899 564.099915,240.449966
	C561.898499,241.950073 559.824036,243.648132 557.559570,245.041122
	C554.389832,246.990967 551.350586,246.404007 549.102112,243.567703
	C546.869446,240.751480 546.925354,237.563232 549.463867,234.945984
	C551.417664,232.931458 553.707092,231.193146 556.024658,229.587982
	C589.697876,206.265289 626.349854,203.480621 664.795410,214.220642
	C668.813965,215.343262 671.200195,214.625687 673.929016,211.776352
	C683.090942,202.209976 694.024841,195.360031 706.789612,191.640076
	C730.313538,184.784622 752.885010,188.815720 775.017090,197.747421
	C776.907288,198.510223 778.662842,200.079010 781.191956,199.358368
	C780.285339,189.972351 777.845276,181.205231 774.157959,172.802063
	C766.895325,156.251282 755.004761,145.013687 737.025269,140.844757
	C727.492981,138.634506 719.528259,133.675064 712.818726,126.624245
	C708.568542,122.157829 704.076111,117.891449 700.139648,113.162956
	C689.288574,100.128738 675.244507,92.849800 658.866882,89.695702
	C649.386169,87.869835 639.871399,86.171021 630.158936,88.308868
	C626.631775,89.085266 624.915710,90.389168 626.120605,94.476921
	C627.780090,100.106918 627.544922,106.005859 627.422729,111.836403
	C627.062500,129.022583 619.011230,141.778198 604.326599,150.125717
	C588.630737,159.048096 571.304260,160.983994 553.586060,160.336609
	C549.820618,160.199020 547.832886,157.793335 547.756287,154.145035
	C547.680176,150.518478 549.494751,148.045563 553.274597,147.659378
	C557.747375,147.202408 562.242920,146.955582 566.732300,146.677200
	C576.283691,146.084930 585.517761,144.164856 594.246094,140.140823
	C608.704407,133.475113 615.652588,120.297997 613.972900,104.402603
	C613.263794,97.692169 610.431152,91.557037 609.826843,84.938477
	C609.440857,80.711998 607.774963,77.263023 605.016663,74.237015
	C593.754822,61.882225 568.399231,57.321819 553.531311,64.944969
	C545.725586,68.947144 543.996704,73.854561 547.858154,81.764076
	C550.392151,86.954544 554.296204,91.064781 558.947998,94.437073
	C562.864136,97.276024 567.022400,99.717468 571.338684,101.923447
	C575.776184,104.191345 577.073792,107.598442 575.203003,111.251007
	C573.384460,114.801384 569.608337,115.927757 565.362915,114.010292
	C559.262207,111.254852 553.510986,107.843414 548.416016,103.513565
	C539.368652,95.824959 532.270020,86.743843 532.728333,74.183586
	C533.072144,64.761299 531.027100,61.284836 520.416443,57.622265
	C509.139038,53.729546 497.477509,54.143627 485.885284,56.486794
	C484.548737,56.756947 482.816406,56.830399 482.403656,58.734901
	C483.184235,60.601196 484.952057,61.350998 486.404968,62.400917
	C496.730621,69.862701 506.005005,78.418518 513.723633,88.590508
	C532.950012,113.928238 536.740051,141.415634 524.984985,170.965073
	C519.760498,184.098267 512.118408,195.840363 502.927643,206.476166
	C493.505310,217.379883 488.142029,230.125961 484.844299,243.849823
	C479.108429,267.720337 487.645630,285.262360 509.809753,295.980164
	C514.933289,298.457703 520.350525,300.069244 525.744202,301.786285
	C530.448608,303.283844 532.248840,306.236725 531.211243,310.415649
	C530.316223,314.020081 526.526672,315.768219 521.932922,314.575562
	C512.855835,312.218842 504.173553,308.838287 496.182892,303.900635
	C479.867676,293.818909 470.252533,279.217560 469.876801,260.000305
	C469.435913,237.450623 476.988007,217.183578 491.166595,199.577713
	C497.874817,191.247925 504.258789,182.728012 509.106506,173.171539
	C519.354248,152.969696 521.919800,132.380081 511.860931,111.257843
	C507.735291,102.594536 502.264191,94.848022 495.375336,88.194191
	C480.894135,74.206985 465.647736,61.250072 445.229523,56.882248
	C431.399902,53.923843 417.337097,54.319492 403.500366,56.621845
	C387.442902,59.293709 371.971069,63.788963 359.992126,75.982178
	C357.127930,78.897583 353.728607,78.704819 350.506531,76.218086
	C345.876434,72.644676 340.498688,71.086960 334.812561,70.293549
	C322.357910,68.555695 309.930878,69.354759 297.457642,70.273369
	C277.443237,71.747368 258.943909,77.349815 242.297302,88.795227
	C231.966721,95.898064 223.047729,104.724503 213.078568,112.256844
	C199.505585,122.512070 186.183334,133.060608 174.654312,145.659210
	C153.685028,168.573883 138.044144,193.962158 137.429779,226.284973
	C137.353226,230.311783 135.056747,232.636414 131.235443,232.712418
	C127.141060,232.793869 124.815948,230.327713 124.590271,226.152008
	C124.017876,215.561569 125.602959,205.251709 128.659470,195.132126
	C133.183014,180.155380 140.923279,166.816483 150.558685,152.899323
	C137.016830,162.401810 127.350311,173.775162 117.505325,185.977371
M352.327820,585.230347
	C328.057922,565.033936 316.349518,540.446838 326.035980,508.413727
	C325.032349,508.542389 324.504669,508.500000 324.070679,508.681549
	C307.791626,515.491943 291.528931,522.341614 275.239380,529.126709
	C273.279388,529.943054 272.424255,531.242859 272.332123,533.300049
	C271.184570,558.916565 280.631989,583.609192 310.408142,593.812988
	C326.786865,599.425720 343.677917,600.240479 360.707794,599.373169
	C364.417877,599.184143 368.476044,599.490234 372.986237,597.308899
	C365.376526,593.794067 358.865295,590.170105 352.327820,585.230347
M688.797241,559.163818
	C685.053284,567.549133 681.309326,575.934448 677.174194,585.195801
	C694.991760,578.793274 724.211914,539.883606 724.694763,523.249207
	C719.625854,523.249207 714.554443,523.349976 709.489502,523.213135
	C706.197632,523.124268 704.343445,524.531738 703.033936,527.530457
	C698.507507,537.895874 693.776184,548.171753 688.797241,559.163818
M675.948853,538.670837
	C673.934082,539.446411 671.978638,540.555664 669.891907,540.926575
	C665.803894,541.653320 663.802856,544.099731 662.185608,547.761536
	C654.871033,564.322754 647.276428,580.760254 639.824036,597.260986
	C639.180237,598.686584 637.830505,600.003113 638.709595,602.005920
	C642.614502,602.160461 646.016602,600.171265 649.685547,599.377380
	C655.255798,598.172058 658.295349,594.752502 660.520874,589.575989
	C667.475891,573.398743 674.879639,557.414490 682.088013,541.345825
	C682.923340,539.483704 684.117981,537.671448 683.677490,534.991821
	C681.076477,536.250427 678.863220,537.321350 675.948853,538.670837
M645.475708,552.126892
	C646.212097,549.970154 647.996460,548.174377 647.780640,545.674133
	C636.070007,543.957947 635.220337,544.393494 630.577271,554.628601
	C623.629639,569.943726 616.683472,585.259583 609.775757,600.592712
	C608.984009,602.350281 607.663452,604.081055 608.703979,606.200684
	C616.292358,607.997192 620.721741,606.713379 622.887756,601.949097
	C630.332031,585.575134 637.727051,569.178711 645.475708,552.126892
M608.953674,552.470947
	C606.014526,554.868103 601.753662,555.835510 600.040894,559.493103
	C593.407043,573.660278 586.984009,587.926392 580.530457,602.177307
	C579.896301,603.577637 579.671448,604.956909 581.527588,605.976868
	C586.035645,608.454285 592.215942,606.619446 594.406372,601.833862
	C601.543030,586.241760 608.633850,570.628479 615.645447,554.979919
	C616.323914,553.465698 617.899902,551.908142 616.521423,549.835571
	C613.857727,549.549744 611.808289,551.099976 608.953674,552.470947
M475.816437,640.836548
	C477.676361,641.765503 479.691589,641.612915 481.676758,641.688232
	C484.087891,641.779663 485.553375,640.700195 485.563324,638.234314
	C485.607574,627.275940 485.667694,616.316101 485.525269,605.359375
	C485.488251,602.510681 480.164948,599.380981 476.160950,599.770386
	C472.294800,600.146301 473.484192,603.405090 473.453186,605.601318
	C473.317261,615.230103 473.384766,624.861877 473.398926,634.492554
	C473.402100,636.633911 473.148041,638.872925 475.816437,640.836548
M566.632935,600.181702
	C571.213196,590.003174 575.793457,579.824707 580.958557,568.346436
	C575.147522,570.375732 570.944641,571.873352 566.718994,573.303467
	C565.154419,573.833008 564.263123,574.974121 563.629578,576.363342
	C560.317932,583.625122 557.020813,590.893677 553.754272,598.175781
	C553.217346,599.372864 552.604919,600.661682 553.780273,601.873413
	C555.802124,603.958069 564.223022,603.260376 566.632935,600.181702
M460.606262,609.490784
	C460.598999,606.160217 460.417328,602.818604 460.627258,599.501770
	C460.908325,595.061279 458.604889,592.665710 454.594330,592.638062
	C450.341370,592.608643 449.942932,596.146606 449.935364,599.494812
	C449.916138,607.987671 449.859192,616.480835 449.918640,624.973206
	C449.960724,630.990723 452.285034,633.397156 459.861847,634.744141
	C460.112305,626.579834 460.359283,618.528870 460.606262,609.490784
M508.621429,633.488708
	C508.271240,626.516235 507.982361,619.539917 507.550842,612.572449
	C507.223633,607.288513 505.162354,605.909546 499.242737,607.151184
	C499.242737,617.177734 499.218719,627.301208 499.261566,637.424438
	C499.270935,639.642090 500.180969,641.584351 502.689240,641.431824
	C505.099518,641.285278 507.887329,641.087158 508.498352,637.855042
	C508.711884,636.725525 508.592163,635.533081 508.621429,633.488708
M542.860474,589.436157
	C544.008545,585.931396 546.686340,582.953979 546.749634,579.025757
	C537.579590,577.465576 533.951599,579.219788 530.419189,586.741150
	C529.997070,587.640137 529.591492,588.546997 529.178040,589.450073
	C525.449097,597.594788 525.676941,597.862427 534.539368,599.088867
	C537.142456,599.449097 538.663391,598.752136 539.677002,596.454468
	C540.612488,594.333801 541.622620,592.246094 542.860474,589.436157
M477.057434,583.656738
	C478.702423,586.687195 486.352356,589.793945 488.184174,587.827271
	C490.906433,584.904480 492.657806,581.014832 492.714539,577.112976
	C492.755829,574.272827 488.956635,574.571411 486.905975,573.429138
	C483.231720,571.382507 481.043213,572.852661 479.787415,576.565674
	C479.048187,578.751343 478.082367,580.860291 477.057434,583.656738
M521.219604,616.121460
	C521.923218,622.364990 520.156006,628.900574 522.910706,634.958252
	C527.362732,634.608093 528.806702,632.392395 528.666443,628.625793
	C528.525085,624.829895 528.425964,621.009644 528.691711,617.226929
	C529.056152,612.038574 526.482178,610.514038 522.010803,610.891907
	C520.599792,612.314575 521.260010,613.864380 521.219604,616.121460
M510.678894,579.311829
	C504.877808,579.519104 505.487091,584.936035 503.542786,588.227051
	C502.646973,589.743286 501.756989,591.722229 504.335449,592.777710
	C506.537231,593.678955 509.070923,594.576538 510.547119,591.975159
	C512.628479,588.307312 515.134888,584.751709 515.785095,580.591003
	C514.465393,578.876831 512.838623,579.557556 510.678894,579.311829
M433.376251,608.967712
	C434.025116,610.442932 434.361237,612.106018 436.103638,613.344604
	C436.294495,608.907959 437.292847,604.733093 435.987549,600.560547
	C430.752899,600.865906 430.664703,601.128906 433.376251,608.967712
M542.365479,618.175964
	C542.403320,618.334961 542.416504,618.505859 542.486145,618.649536
	C542.554993,618.791748 542.713989,619.031860 542.776489,619.015259
	C544.946777,618.436768 545.260864,616.976807 544.870911,615.061218
	C542.284241,614.539978 542.398010,616.179321 542.365479,618.175964
z" />
	<path fill="#000000" opacity="1.000000" stroke="none" d="
M633.802002,469.873596
	C623.581177,477.324280 611.977905,480.437164 600.320435,483.243774
	C565.833740,491.546539 531.829590,501.391479 498.766327,514.328857
	C497.836670,514.692627 496.907959,515.066772 495.956909,515.366577
	C491.745544,516.694214 487.868439,515.282654 486.891479,511.775909
	C485.765808,507.735199 486.973846,504.608582 491.133209,502.898376
	C503.145081,497.959503 515.396179,493.691376 527.723083,489.621735
	C553.645447,481.063538 580.073547,474.325928 606.518005,467.642578
	C619.143127,464.451813 629.167664,458.268311 635.564819,446.111725
	C641.653320,434.541656 652.593750,427.652893 663.798218,421.496429
	C676.977966,414.254700 691.029663,409.042389 705.088379,403.851959
	C718.422974,398.928894 730.501770,392.019714 739.541138,380.795776
	C752.233276,365.036255 753.717163,346.819550 750.170776,327.787292
	C747.309387,312.430939 741.565796,298.101624 733.674194,284.629913
	C733.169189,283.767792 732.605103,282.927826 732.209412,282.016388
	C730.651855,278.428345 730.694153,275.057465 734.409241,272.861176
	C738.315430,270.551971 741.571045,272.056122 743.835144,275.515656
	C748.130371,282.078491 751.468750,289.164581 754.556458,296.362823
	C760.503357,310.226379 764.592834,324.655487 765.204712,339.720947
	C766.532898,372.424316 751.647095,395.792175 722.857666,410.678009
	C709.807983,417.425446 695.458862,421.021240 682.229309,427.331390
	C670.190735,433.073425 658.069519,438.741425 649.470703,449.535309
	C647.612549,451.867767 645.927673,454.381866 644.480103,456.988434
	C641.774048,461.861237 638.349487,466.087250 633.802002,469.873596
z" />
	<path fill="#000000" opacity="1.000000" stroke="none" d="
M284.793823,175.307480
	C281.213135,174.981384 278.074646,174.533203 274.924591,174.426697
	C270.653595,174.282257 267.864136,172.561859 267.516632,168.062592
	C267.195221,163.901611 269.742523,161.083374 274.747192,161.041702
	C284.794769,160.958023 294.639221,162.513992 303.970490,166.459625
	C306.876984,167.688568 309.795166,169.002106 312.451416,170.682465
	C315.841400,172.826950 317.660400,172.128693 319.242462,168.472534
	C324.030579,157.407043 330.229736,147.176376 338.235535,138.103104
	C357.326660,116.466309 381.670746,105.118416 409.976776,101.657860
	C423.912292,99.954193 437.852509,99.833420 451.699890,102.547218
	C456.953217,103.576759 459.636810,106.560226 459.009369,110.282715
	C458.311737,114.421570 454.690735,116.316010 449.391235,115.617699
	C421.130951,111.893852 393.918610,114.343887 368.955688,129.596024
	C349.485077,141.492401 337.358612,159.194382 329.119690,179.997025
	C328.097443,182.578125 328.827423,184.458420 330.356812,186.409668
	C340.569763,199.439545 346.102966,214.426285 348.809906,230.598602
	C349.648956,235.611343 347.440491,239.563217 343.340546,240.189529
	C339.343292,240.800156 336.522736,238.127960 335.606720,232.992355
	C332.780212,217.145660 327.364563,202.519531 315.876068,190.684372
	C307.426758,181.980087 297.138519,177.073090 284.793823,175.307480
z" />
	<path fill="#000000" opacity="1.000000" stroke="none" d="
M254.118286,302.742859
	C257.660553,300.919708 260.328033,301.944519 262.506470,304.397125
	C264.666290,306.828735 264.322815,309.612274 263.047150,312.348511
	C256.742432,325.872223 246.280273,335.341278 233.473236,342.463654
	C225.572083,346.857727 217.077164,349.688293 208.331024,351.914734
	C193.192566,355.768372 185.456268,364.947113 184.444489,380.545868
	C183.433334,396.135162 186.316284,410.994354 193.808640,424.832764
	C196.197800,429.245514 195.664093,432.863403 192.328156,434.947906
	C188.677734,437.228912 184.813919,436.271851 182.325195,431.702637
	C173.268204,415.074188 169.406296,397.303894 171.243301,378.365295
	C171.827225,372.345215 173.249832,366.558990 175.826736,361.105591
	C181.222198,349.687317 190.271408,342.632690 202.403458,339.529907
	C212.602097,336.921570 222.563812,333.809235 231.422302,327.881256
	C239.729416,322.322296 246.652145,315.526306 250.955978,306.344513
	C251.601822,304.966644 252.442596,303.744049 254.118286,302.742859
z" />
	<path fill="#000000" opacity="1.000000" stroke="none" d="
M427.202057,162.012329
	C433.569916,175.313965 434.630402,188.218063 428.486420,201.736618
	C424.458496,210.599167 424.382507,220.154114 427.469086,229.529297
	C430.124939,237.596130 434.779175,243.995773 442.704163,247.729095
	C447.692688,250.079102 449.229797,253.393402 447.397308,257.097931
	C445.448486,261.037598 441.608704,262.230164 436.751068,259.838684
	C422.017059,252.584915 414.835022,240.101761 412.640869,224.281631
	C411.089142,213.093048 412.955811,202.443390 417.623932,192.224976
	C420.693176,185.506424 419.510437,178.934906 416.945251,172.405823
	C413.349182,163.253006 407.508514,155.622955 400.777985,148.605453
	C398.704254,146.443375 396.468567,144.435349 394.419891,142.250916
	C391.576294,139.218887 390.556671,135.807510 393.845947,132.564285
	C396.966400,129.487518 400.560730,129.887482 403.697418,132.643585
	C413.156067,140.954590 421.085846,150.527878 427.202057,162.012329
z" />
	<path fill="#000000" opacity="1.000000" stroke="none" d="
M212.778336,380.268158
	C214.591064,375.323090 217.723694,374.258942 222.402008,375.315735
	C238.081177,378.857452 253.904480,380.810516 269.762482,376.573303
	C285.948242,372.248505 296.711334,362.015198 301.764862,345.939514
	C301.864563,345.622345 301.935791,345.295837 302.043610,344.981689
	C303.677704,340.220825 306.677643,338.124054 310.437592,339.109955
	C314.409241,340.151367 316.383728,343.797577 315.042236,348.708496
	C311.797668,360.586090 305.545959,370.624725 295.885071,378.388519
	C285.138184,387.025055 272.563812,391.092163 259.064728,392.174835
	C245.549210,393.258850 232.192764,391.595856 219.040115,388.321228
	C215.025131,387.321655 212.500793,385.150024 212.778336,380.268158
z" />
</svg>
